<svg width="51" height="51" viewBox="0 0 51 51" fill="none" xmlns="http://www.w3.org/2000/svg">
<path d="M25.4996 10.5586C17.2614 10.5586 10.5582 17.2618 10.5582 25.5C10.5582 33.7382 17.2614 40.4414 25.4996 40.4414C33.7378 40.4414 40.441 33.7382 40.441 25.5C40.441 17.2618 33.7378 10.5586 25.4996 10.5586Z" fill="#3C3C3C"/>
<path d="M41.0088 34.4648C39.4549 37.1841 37.154 39.4552 34.4346 41.0391L43.4293 43.4596L41.0088 34.4648Z" fill="#3C3C3C"/>
<path d="M25.4996 0L20.8978 8.19775C22.362 7.77949 23.9157 7.57031 25.4996 7.57031C27.0835 7.57031 28.6373 7.77949 30.1016 8.19775L25.4996 0Z" fill="#3C3C3C"/>
<path d="M7.56995 7.57031L9.99045 16.5352C11.5445 13.8157 13.7857 11.5745 16.5049 9.99082L7.56995 7.57031Z" fill="#3C3C3C"/>
<path d="M8.19757 20.8682L0.0296021 25.5L8.19757 30.1318C7.77921 28.6676 7.56993 27.1137 7.56993 25.5C7.56993 23.8862 7.77911 22.3324 8.19757 20.8682Z" fill="#3C3C3C"/>
<path d="M9.99045 34.4648L7.56995 43.4596L16.5647 41.0391C13.8453 39.4552 11.5445 37.1841 9.99045 34.4648Z" fill="#3C3C3C"/>
<path d="M25.4996 43.4297C23.886 43.4297 22.332 43.2205 20.8379 42.8021L25.4996 51L30.1613 42.8021C28.6672 43.2204 27.1132 43.4297 25.4996 43.4297Z" fill="#3C3C3C"/>
<path d="M34.4807 10.006C37.1841 11.5793 39.4369 13.834 41.0065 16.54L43.4396 7.57471L34.4807 10.006Z" fill="#3C3C3C"/>
<path d="M50.9705 25.5146L42.8074 20.8937C43.1999 22.3665 43.4293 23.9052 43.4293 25.5C43.4293 27.1072 43.1969 28.6579 42.7984 30.1411L50.9705 25.5146Z" fill="#3C3C3C"/>
</svg>
