<svg width="43" height="43" viewBox="0 0 43 43" fill="none" xmlns="http://www.w3.org/2000/svg">
<g clip-path="url(#clip0)">
<path d="M28.541 21.5C28.541 17.2837 26.4443 13.6405 23.4021 11.8847V31.1272C26.4443 29.3595 28.541 25.7164 28.541 21.5Z" fill="white"/>
<path d="M0.790955 14.3333V28.6667H9.01314L19.291 40.6112V2.38885L9.01314 14.3333H0.790955Z" fill="white"/>
<path d="M23.4021 0.5495V5.48252C29.3427 7.537 33.6799 13.9272 33.6799 21.5C33.6799 29.0728 29.3427 35.463 23.4021 37.5175V42.4505C31.6346 40.2767 37.791 31.7364 37.791 21.5C37.791 11.2637 31.6346 2.72335 23.4021 0.5495Z" fill="white"/>
</g>
<rect y="1.9234" width="2.42449" height="57.7132" transform="rotate(-45 0 1.9234)" fill="white"/>
<defs>
<clipPath id="clip0">
<rect width="37" height="43" fill="white" transform="translate(0.790955)"/>
</clipPath>
</defs>
</svg>
